<?xml version="1.0" encoding="utf-8"?>
<!-- Generator: Adobe Illustrator 23.0.2, SVG Export Plug-In . SVG Version: 6.00 Build 0)  -->
<svg version="1.1" id="Layer_1" xmlns="http://www.w3.org/2000/svg" xmlns:xlink="http://www.w3.org/1999/xlink" x="0px" y="0px"
	 viewBox="0 0 620 845" style="enable-background:new 0 0 620 845;" xml:space="preserve">
<style type="text/css">
	.st0{fill:#674FA1;}
	.st1{fill:none;}
</style>
<g>
</g>
<g>
</g>
<g>
</g>
<g>
	<path class="st0" d="M181.7,333.7v17.9h-6.6V369h-19.8v-41.4c0-7.8,2.4-14.2,7.2-19.3c4.8-5.1,10.8-7.6,18.1-7.6
		c8,0,14.8,3.5,20.2,10.4L184.6,323c-0.9-2.5-2.5-3.8-4.8-3.8c-3.1,0-4.6,2.1-4.6,6.3v8.3H181.7z"/>
	<path class="st0" d="M221.7,320.3V369h-18.3v-48.7H221.7z M212.6,298.6c2.5,0,4.6,0.9,6.4,2.6c1.8,1.7,2.7,3.8,2.7,6.2
		c0,2.5-0.9,4.6-2.6,6.3c-1.7,1.6-3.9,2.4-6.6,2.4c-2.7,0-4.9-0.8-6.6-2.4c-1.7-1.6-2.6-3.7-2.6-6.3c0-2.4,0.9-4.4,2.7-6.2
		C208,299.5,210.2,298.6,212.6,298.6z"/>
	<path class="st0" d="M250.7,302.3V369h-18.3v-66.7H250.7z"/>
	<path class="st0" d="M328.2,369H310v-26.3c0-2-0.2-3.4-0.6-4.2c-0.4-0.8-1.2-1.2-2.3-1.2c-2.1,0-3.1,1.8-3.1,5.4V369h-18.3v-26.3
		c0-2-0.2-3.4-0.7-4.2s-1.2-1.2-2.3-1.2c-2,0-3,1.8-3,5.4V369h-18.3v-30c0-5.5,1.8-10.1,5.5-13.9c3.7-3.8,8.1-5.7,13.4-5.7
		c5.4,0,10.3,2.3,14.6,6.8c4.8-4.6,9.6-6.8,14.4-6.8c6.1,0,11,2.2,14.6,6.6c2.9,3.5,4.3,8.5,4.3,15.1V369z"/>
	<path class="st0" d="M365.6,326.2v17.6h-5.5V369h-19.8v-66.7h19.8v23.8H365.6z M388.8,302.3V369H369v-66.7H388.8z"/>
	<path class="st0" d="M400.8,321H419v27.5c0,2.8,1.2,4.2,3.5,4.2c2.3,0,3.4-1.4,3.4-4.2V321h18.3v27.1c0,6.3-2.1,11.6-6.3,16
		s-9.3,6.5-15.4,6.5c-6.9,0-12.5-2.5-16.7-7.6c-3.3-3.9-4.9-9.4-4.9-16.4V321z"/>
	<path class="st0" d="M472,302.3v39.9c0,6.5,2.3,9.7,7,9.7c2,0,3.7-0.7,5.1-2c1.4-1.4,2.1-3,2.1-4.9c0-2-0.7-3.7-2-5
		c-1.3-1.4-2.9-2-4.8-2c-1.3,0-2.9,0.6-4.6,1.8v-20.1c2.1-0.2,3.8-0.3,4.9-0.3c6.9,0,12.8,2.5,17.7,7.4c4.9,4.9,7.3,10.9,7.3,17.9
		c0,7.1-2.5,13.1-7.5,18s-11.1,7.3-18.4,7.3c-3.6,0-7.2-0.8-10.7-2.4s-6.3-3.7-8.6-6.4c-3.9-4.7-5.9-10.8-5.9-18.2v-40.6H472z"/>
</g>
<g>
</g>
<g>
</g>
<g>
</g>
<g>
	<rect x="540" y="347" class="st1" width="12" height="2"/>
</g>
<g>
</g>
<g>
</g>
<g>
</g>
<g>
</g>
<g>
</g>
<g>
</g>
</svg>
